ISO-10303-21;
HEADER;
/* Generated by software containing ST-Developer
 * from STEP Tools, Inc. (www.steptools.com) 
 */

FILE_DESCRIPTION(
/* description */ (''),
/* implementation_level */ '2;1');

FILE_NAME(
/* name */ 'InnenLauf.step',
/* time_stamp */ '2026-01-08T23:54:25+01:00',
/* author */ (''),
/* organization */ (''),
/* preprocessor_version */ 'ST-DEVELOPER v20.1',
/* originating_system */ 'Autodesk Translation Framework v14.21.0.0',
/* authorisation */ '');

FILE_SCHEMA (('AUTOMOTIVE_DESIGN { 1 0 10303 214 3 1 1 }'));
ENDSEC;

DATA;
#10=MECHANICAL_DESIGN_GEOMETRIC_PRESENTATION_REPRESENTATION('',(#13),#587);
#11=SHAPE_REPRESENTATION_RELATIONSHIP('SRR','None',#594,#12);
#12=ADVANCED_BREP_SHAPE_REPRESENTATION('',(#14),#586);
#13=STYLED_ITEM('',(#603),#14);
#14=MANIFOLD_SOLID_BREP('InnenLauf',#259);
#15=FACE_BOUND('',#50,.T.);
#16=FACE_BOUND('',#52,.T.);
#17=FACE_BOUND('',#54,.T.);
#18=FACE_BOUND('',#56,.T.);
#19=CIRCLE('',#282,22.5);
#20=CIRCLE('',#283,22.5);
#21=CIRCLE('',#285,25.);
#22=CIRCLE('',#286,25.);
#23=PLANE('',#275);
#24=PLANE('',#276);
#25=PLANE('',#277);
#26=PLANE('',#280);
#27=PLANE('',#287);
#28=PLANE('',#288);
#29=FACE_OUTER_BOUND('',#41,.T.);
#30=FACE_OUTER_BOUND('',#42,.T.);
#31=FACE_OUTER_BOUND('',#43,.T.);
#32=FACE_OUTER_BOUND('',#44,.T.);
#33=FACE_OUTER_BOUND('',#45,.T.);
#34=FACE_OUTER_BOUND('',#46,.T.);
#35=FACE_OUTER_BOUND('',#47,.T.);
#36=FACE_OUTER_BOUND('',#48,.T.);
#37=FACE_OUTER_BOUND('',#49,.T.);
#38=FACE_OUTER_BOUND('',#51,.T.);
#39=FACE_OUTER_BOUND('',#53,.T.);
#40=FACE_OUTER_BOUND('',#55,.T.);
#41=EDGE_LOOP('',(#169,#170,#171,#172,#173,#174));
#42=EDGE_LOOP('',(#175,#176,#177,#178));
#43=EDGE_LOOP('',(#179,#180,#181,#182));
#44=EDGE_LOOP('',(#183,#184,#185,#186));
#45=EDGE_LOOP('',(#187,#188,#189,#190));
#46=EDGE_LOOP('',(#191,#192,#193,#194,#195,#196));
#47=EDGE_LOOP('',(#197,#198,#199,#200));
#48=EDGE_LOOP('',(#201,#202,#203,#204));
#49=EDGE_LOOP('',(#205,#206,#207,#208,#209,#210,#211,#212,#213,#214,#215,
#216));
#50=EDGE_LOOP('',(#217,#218,#219,#220));
#51=EDGE_LOOP('',(#221,#222,#223,#224,#225,#226,#227,#228,#229,#230,#231,
#232));
#52=EDGE_LOOP('',(#233,#234,#235,#236));
#53=EDGE_LOOP('',(#237));
#54=EDGE_LOOP('',(#238));
#55=EDGE_LOOP('',(#239));
#56=EDGE_LOOP('',(#240));
#57=LINE('',#362,#77);
#58=LINE('',#390,#78);
#59=LINE('',#425,#79);
#60=LINE('',#447,#80);
#61=LINE('',#450,#81);
#62=LINE('',#452,#82);
#63=LINE('',#453,#83);
#64=LINE('',#456,#84);
#65=LINE('',#458,#85);
#66=LINE('',#459,#86);
#67=LINE('',#462,#87);
#68=LINE('',#464,#88);
#69=LINE('',#465,#89);
#70=LINE('',#564,#90);
#71=LINE('',#566,#91);
#72=LINE('',#567,#92);
#73=LINE('',#571,#93);
#74=LINE('',#573,#94);
#75=LINE('',#578,#95);
#76=LINE('',#580,#96);
#77=VECTOR('',#293,10.);
#78=VECTOR('',#294,10.);
#79=VECTOR('',#297,10.);
#80=VECTOR('',#298,10.);
#81=VECTOR('',#301,10.);
#82=VECTOR('',#302,10.);
#83=VECTOR('',#303,10.);
#84=VECTOR('',#306,10.);
#85=VECTOR('',#307,10.);
#86=VECTOR('',#308,10.);
#87=VECTOR('',#311,10.);
#88=VECTOR('',#312,10.);
#89=VECTOR('',#313,10.);
#90=VECTOR('',#318,10.);
#91=VECTOR('',#321,10.);
#92=VECTOR('',#322,10.);
#93=VECTOR('',#327,22.5);
#94=VECTOR('',#328,22.5);
#95=VECTOR('',#335,25.);
#96=VECTOR('',#336,25.);
#97=B_SPLINE_CURVE_WITH_KNOTS('',3,(#347,#348,#349,#350,#351,#352,#353,
#354,#355,#356,#357,#358,#359,#360),.UNSPECIFIED.,.F.,.F.,(4,2,2,2,2,2,
4),(-1.20817495359939,-1.20816217966597,-1.05713846523369,-0.906114750801396,
-0.75508968624891,-0.604064621696425,-0.602486709370556),.UNSPECIFIED.);
#98=B_SPLINE_CURVE_WITH_KNOTS('',3,(#364,#365,#366,#367,#368,#369,#370,
#371,#372,#373,#374,#375,#376,#377),.UNSPECIFIED.,.F.,.F.,(4,2,2,2,2,2,
4),(0.602223954426123,0.603801861809649,0.754759926146624,0.9057179904836,
1.05667412957012,1.20763026865664,1.2076430425897),.UNSPECIFIED.);
#99=B_SPLINE_CURVE_WITH_KNOTS('',3,(#379,#380,#381,#382,#383,#384,#385,
#386,#387,#388),.UNSPECIFIED.,.F.,.F.,(4,2,2,2,4),(0.,0.150954811923632,
0.301909623847265,0.452855742828457,0.602223954426123),.UNSPECIFIED.);
#100=B_SPLINE_CURVE_WITH_KNOTS('',3,(#391,#392,#393,#394,#395,#396,#397,
#398,#399,#400),.UNSPECIFIED.,.F.,.F.,(4,2,2,2,4),(-0.602486709370556,-0.453054340684727,
-0.30204405967303,-0.151022029836515,0.),.UNSPECIFIED.);
#101=B_SPLINE_CURVE_WITH_KNOTS('',3,(#404,#405,#406,#407,#408,#409,#410,
#411,#412,#413,#414,#415,#416,#417,#418,#419,#420,#421,#422,#423),
 .UNSPECIFIED.,.F.,.F.,(4,2,2,2,2,2,2,2,2,4),(0.,0.151022029836515,0.30204405967303,
0.453054340684727,0.604064621696425,0.75508968624891,0.906114750801396,
1.05713846523369,1.20816217966598,1.20817495359938),.UNSPECIFIED.);
#102=B_SPLINE_CURVE_WITH_KNOTS('',3,(#427,#428,#429,#430,#431,#432,#433,
#434,#435,#436,#437,#438,#439,#440,#441,#442,#443,#444,#445,#446),
 .UNSPECIFIED.,.F.,.F.,(4,2,2,2,2,2,2,2,2,4),(-1.2076430425897,-1.20763026865664,
-1.05667412957012,-0.905717990483599,-0.754759926146624,-0.603801861809649,
-0.452855742828457,-0.301909623847265,-0.150954811923632,0.),
 .UNSPECIFIED.);
#103=B_SPLINE_CURVE_WITH_KNOTS('',3,(#468,#469,#470,#471,#472,#473,#474,
#475,#476,#477,#478,#479,#480),.UNSPECIFIED.,.F.,.F.,(4,3,2,2,2,4),(-1.27733234457361E-5,
0.,0.151022029836626,0.302044059673252,0.453054340685894,0.602486709576377),
 .UNSPECIFIED.);
#104=B_SPLINE_CURVE_WITH_KNOTS('',3,(#482,#483,#484,#485,#486,#487,#488,
#489,#490,#491,#492,#493,#494),.UNSPECIFIED.,.F.,.F.,(4,2,2,2,3,4),(-0.60222395453537,
-0.452853741816947,-0.30190562188909,-0.150952810944545,0.,1.2773323103276E-5),
 .UNSPECIFIED.);
#105=B_SPLINE_CURVE_WITH_KNOTS('',3,(#495,#496,#497,#498,#499,#500,#501,
#502,#503,#504,#505,#506),.UNSPECIFIED.,.F.,.F.,(4,2,2,2,2,4),(-1.20763026869094,
-1.05667211240805,-0.905713956125157,-0.75475790893498,-0.603801861744804,
-0.60222395453537),.UNSPECIFIED.);
#106=B_SPLINE_CURVE_WITH_KNOTS('',3,(#507,#508,#509,#510,#511,#512,#513,
#514,#515,#516,#517,#518),.UNSPECIFIED.,.F.,.F.,(4,2,2,2,2,4),(0.602486709576377,
0.604064621698535,0.755089686250056,0.906114750801578,1.05713846523376,
1.20816217966594),.UNSPECIFIED.);
#107=B_SPLINE_CURVE_WITH_KNOTS('',3,(#521,#522,#523,#524,#525,#526,#527,
#528,#529,#530,#531,#532,#533,#534,#535,#536,#537,#538,#539,#540,#541),
 .UNSPECIFIED.,.F.,.F.,(4,2,2,2,2,2,2,2,3,4),(-1.20816217966594,-1.05713846523376,
-0.906114750801578,-0.755089686250057,-0.604064621698535,-0.453054340685894,
-0.302044059673253,-0.151022029836626,0.,1.27733234457517E-5),
 .UNSPECIFIED.);
#108=B_SPLINE_CURVE_WITH_KNOTS('',3,(#543,#544,#545,#546,#547,#548,#549,
#550,#551,#552,#553,#554,#555,#556,#557,#558,#559,#560,#561,#562,#563),
 .UNSPECIFIED.,.F.,.F.,(4,3,2,2,2,2,2,2,2,4),(-1.27733231032323E-5,0.,0.150952810944545,
0.30190562188909,0.452853741816947,0.603801861744804,0.75475790893498,0.905713956125156,
1.05667211240805,1.20763026869094),.UNSPECIFIED.);
#109=VERTEX_POINT('',#345);
#110=VERTEX_POINT('',#346);
#111=VERTEX_POINT('',#361);
#112=VERTEX_POINT('',#363);
#113=VERTEX_POINT('',#378);
#114=VERTEX_POINT('',#389);
#115=VERTEX_POINT('',#402);
#116=VERTEX_POINT('',#403);
#117=VERTEX_POINT('',#424);
#118=VERTEX_POINT('',#426);
#119=VERTEX_POINT('',#449);
#120=VERTEX_POINT('',#451);
#121=VERTEX_POINT('',#455);
#122=VERTEX_POINT('',#457);
#123=VERTEX_POINT('',#461);
#124=VERTEX_POINT('',#463);
#125=VERTEX_POINT('',#467);
#126=VERTEX_POINT('',#481);
#127=VERTEX_POINT('',#520);
#128=VERTEX_POINT('',#542);
#129=VERTEX_POINT('',#569);
#130=VERTEX_POINT('',#572);
#131=VERTEX_POINT('',#576);
#132=VERTEX_POINT('',#579);
#133=EDGE_CURVE('',#109,#110,#97,.T.);
#134=EDGE_CURVE('',#111,#109,#57,.T.);
#135=EDGE_CURVE('',#112,#111,#98,.T.);
#136=EDGE_CURVE('',#113,#112,#99,.T.);
#137=EDGE_CURVE('',#113,#114,#58,.T.);
#138=EDGE_CURVE('',#110,#114,#100,.T.);
#139=EDGE_CURVE('',#115,#116,#101,.T.);
#140=EDGE_CURVE('',#115,#117,#59,.T.);
#141=EDGE_CURVE('',#118,#117,#102,.T.);
#142=EDGE_CURVE('',#116,#118,#60,.T.);
#143=EDGE_CURVE('',#114,#119,#61,.T.);
#144=EDGE_CURVE('',#120,#113,#62,.T.);
#145=EDGE_CURVE('',#119,#120,#63,.T.);
#146=EDGE_CURVE('',#121,#109,#64,.T.);
#147=EDGE_CURVE('',#122,#121,#65,.T.);
#148=EDGE_CURVE('',#111,#122,#66,.T.);
#149=EDGE_CURVE('',#116,#123,#67,.T.);
#150=EDGE_CURVE('',#124,#118,#68,.T.);
#151=EDGE_CURVE('',#123,#124,#69,.T.);
#152=EDGE_CURVE('',#119,#125,#103,.T.);
#153=EDGE_CURVE('',#126,#120,#104,.T.);
#154=EDGE_CURVE('',#122,#126,#105,.T.);
#155=EDGE_CURVE('',#125,#121,#106,.T.);
#156=EDGE_CURVE('',#123,#127,#107,.T.);
#157=EDGE_CURVE('',#128,#124,#108,.T.);
#158=EDGE_CURVE('',#128,#127,#70,.T.);
#159=EDGE_CURVE('',#127,#115,#71,.T.);
#160=EDGE_CURVE('',#117,#128,#72,.T.);
#161=EDGE_CURVE('',#129,#129,#19,.T.);
#162=EDGE_CURVE('',#129,#110,#73,.T.);
#163=EDGE_CURVE('',#125,#130,#74,.T.);
#164=EDGE_CURVE('',#130,#130,#20,.T.);
#165=EDGE_CURVE('',#131,#131,#21,.T.);
#166=EDGE_CURVE('',#131,#112,#75,.T.);
#167=EDGE_CURVE('',#126,#132,#76,.T.);
#168=EDGE_CURVE('',#132,#132,#22,.T.);
#169=ORIENTED_EDGE('',*,*,#133,.F.);
#170=ORIENTED_EDGE('',*,*,#134,.F.);
#171=ORIENTED_EDGE('',*,*,#135,.F.);
#172=ORIENTED_EDGE('',*,*,#136,.F.);
#173=ORIENTED_EDGE('',*,*,#137,.T.);
#174=ORIENTED_EDGE('',*,*,#138,.F.);
#175=ORIENTED_EDGE('',*,*,#139,.F.);
#176=ORIENTED_EDGE('',*,*,#140,.T.);
#177=ORIENTED_EDGE('',*,*,#141,.F.);
#178=ORIENTED_EDGE('',*,*,#142,.F.);
#179=ORIENTED_EDGE('',*,*,#143,.F.);
#180=ORIENTED_EDGE('',*,*,#137,.F.);
#181=ORIENTED_EDGE('',*,*,#144,.F.);
#182=ORIENTED_EDGE('',*,*,#145,.F.);
#183=ORIENTED_EDGE('',*,*,#146,.F.);
#184=ORIENTED_EDGE('',*,*,#147,.F.);
#185=ORIENTED_EDGE('',*,*,#148,.F.);
#186=ORIENTED_EDGE('',*,*,#134,.T.);
#187=ORIENTED_EDGE('',*,*,#149,.F.);
#188=ORIENTED_EDGE('',*,*,#142,.T.);
#189=ORIENTED_EDGE('',*,*,#150,.F.);
#190=ORIENTED_EDGE('',*,*,#151,.F.);
#191=ORIENTED_EDGE('',*,*,#152,.F.);
#192=ORIENTED_EDGE('',*,*,#145,.T.);
#193=ORIENTED_EDGE('',*,*,#153,.F.);
#194=ORIENTED_EDGE('',*,*,#154,.F.);
#195=ORIENTED_EDGE('',*,*,#147,.T.);
#196=ORIENTED_EDGE('',*,*,#155,.F.);
#197=ORIENTED_EDGE('',*,*,#156,.F.);
#198=ORIENTED_EDGE('',*,*,#151,.T.);
#199=ORIENTED_EDGE('',*,*,#157,.F.);
#200=ORIENTED_EDGE('',*,*,#158,.T.);
#201=ORIENTED_EDGE('',*,*,#159,.F.);
#202=ORIENTED_EDGE('',*,*,#158,.F.);
#203=ORIENTED_EDGE('',*,*,#160,.F.);
#204=ORIENTED_EDGE('',*,*,#140,.F.);
#205=ORIENTED_EDGE('',*,*,#161,.F.);
#206=ORIENTED_EDGE('',*,*,#162,.T.);
#207=ORIENTED_EDGE('',*,*,#138,.T.);
#208=ORIENTED_EDGE('',*,*,#143,.T.);
#209=ORIENTED_EDGE('',*,*,#152,.T.);
#210=ORIENTED_EDGE('',*,*,#163,.T.);
#211=ORIENTED_EDGE('',*,*,#164,.F.);
#212=ORIENTED_EDGE('',*,*,#163,.F.);
#213=ORIENTED_EDGE('',*,*,#155,.T.);
#214=ORIENTED_EDGE('',*,*,#146,.T.);
#215=ORIENTED_EDGE('',*,*,#133,.T.);
#216=ORIENTED_EDGE('',*,*,#162,.F.);
#217=ORIENTED_EDGE('',*,*,#156,.T.);
#218=ORIENTED_EDGE('',*,*,#159,.T.);
#219=ORIENTED_EDGE('',*,*,#139,.T.);
#220=ORIENTED_EDGE('',*,*,#149,.T.);
#221=ORIENTED_EDGE('',*,*,#165,.F.);
#222=ORIENTED_EDGE('',*,*,#166,.T.);
#223=ORIENTED_EDGE('',*,*,#135,.T.);
#224=ORIENTED_EDGE('',*,*,#148,.T.);
#225=ORIENTED_EDGE('',*,*,#154,.T.);
#226=ORIENTED_EDGE('',*,*,#167,.T.);
#227=ORIENTED_EDGE('',*,*,#168,.F.);
#228=ORIENTED_EDGE('',*,*,#167,.F.);
#229=ORIENTED_EDGE('',*,*,#153,.T.);
#230=ORIENTED_EDGE('',*,*,#144,.T.);
#231=ORIENTED_EDGE('',*,*,#136,.T.);
#232=ORIENTED_EDGE('',*,*,#166,.F.);
#233=ORIENTED_EDGE('',*,*,#157,.T.);
#234=ORIENTED_EDGE('',*,*,#150,.T.);
#235=ORIENTED_EDGE('',*,*,#141,.T.);
#236=ORIENTED_EDGE('',*,*,#160,.T.);
#237=ORIENTED_EDGE('',*,*,#168,.T.);
#238=ORIENTED_EDGE('',*,*,#164,.T.);
#239=ORIENTED_EDGE('',*,*,#165,.T.);
#240=ORIENTED_EDGE('',*,*,#161,.T.);
#241=CYLINDRICAL_SURFACE('',#273,3.99999999999999);
#242=CYLINDRICAL_SURFACE('',#274,3.99999999999999);
#243=CYLINDRICAL_SURFACE('',#278,4.);
#244=CYLINDRICAL_SURFACE('',#279,4.);
#245=CYLINDRICAL_SURFACE('',#281,22.5);
#246=CYLINDRICAL_SURFACE('',#284,25.);
#247=ADVANCED_FACE('',(#29),#241,.F.);
#248=ADVANCED_FACE('',(#30),#242,.F.);
#249=ADVANCED_FACE('',(#31),#23,.F.);
#250=ADVANCED_FACE('',(#32),#24,.F.);
#251=ADVANCED_FACE('',(#33),#25,.F.);
#252=ADVANCED_FACE('',(#34),#243,.F.);
#253=ADVANCED_FACE('',(#35),#244,.F.);
#254=ADVANCED_FACE('',(#36),#26,.F.);
#255=ADVANCED_FACE('',(#37,#15),#245,.F.);
#256=ADVANCED_FACE('',(#38,#16),#246,.T.);
#257=ADVANCED_FACE('',(#39,#17),#27,.T.);
#258=ADVANCED_FACE('',(#40,#18),#28,.F.);
#259=CLOSED_SHELL('',(#247,#248,#249,#250,#251,#252,#253,#254,#255,#256,
#257,#258));
#260=DERIVED_UNIT_ELEMENT(#262,1.);
#261=DERIVED_UNIT_ELEMENT(#589,-3.);
#262=(
MASS_UNIT()
NAMED_UNIT(*)
SI_UNIT(.KILO.,.GRAM.)
);
#263=DERIVED_UNIT((#260,#261));
#264=MEASURE_REPRESENTATION_ITEM('density measure',
POSITIVE_RATIO_MEASURE(7850.),#263);
#265=PROPERTY_DEFINITION_REPRESENTATION(#270,#267);
#266=PROPERTY_DEFINITION_REPRESENTATION(#271,#268);
#267=REPRESENTATION('material name',(#269),#586);
#268=REPRESENTATION('density',(#264),#586);
#269=DESCRIPTIVE_REPRESENTATION_ITEM('Stahl','Stahl');
#270=PROPERTY_DEFINITION('material property','material name',#596);
#271=PROPERTY_DEFINITION('material property','density of part',#596);
#272=AXIS2_PLACEMENT_3D('',#343,#289,#290);
#273=AXIS2_PLACEMENT_3D('',#344,#291,#292);
#274=AXIS2_PLACEMENT_3D('',#401,#295,#296);
#275=AXIS2_PLACEMENT_3D('',#448,#299,#300);
#276=AXIS2_PLACEMENT_3D('',#454,#304,#305);
#277=AXIS2_PLACEMENT_3D('',#460,#309,#310);
#278=AXIS2_PLACEMENT_3D('',#466,#314,#315);
#279=AXIS2_PLACEMENT_3D('',#519,#316,#317);
#280=AXIS2_PLACEMENT_3D('',#565,#319,#320);
#281=AXIS2_PLACEMENT_3D('',#568,#323,#324);
#282=AXIS2_PLACEMENT_3D('',#570,#325,#326);
#283=AXIS2_PLACEMENT_3D('',#574,#329,#330);
#284=AXIS2_PLACEMENT_3D('',#575,#331,#332);
#285=AXIS2_PLACEMENT_3D('',#577,#333,#334);
#286=AXIS2_PLACEMENT_3D('',#581,#337,#338);
#287=AXIS2_PLACEMENT_3D('',#582,#339,#340);
#288=AXIS2_PLACEMENT_3D('',#583,#341,#342);
#289=DIRECTION('axis',(0.,0.,1.));
#290=DIRECTION('refdir',(1.,0.,0.));
#291=DIRECTION('center_axis',(1.,0.,0.));
#292=DIRECTION('ref_axis',(0.,-0.999999999872519,-1.59675047425073E-5));
#293=DIRECTION('',(1.,0.,0.));
#294=DIRECTION('',(1.,0.,0.));
#295=DIRECTION('center_axis',(1.,0.,0.));
#296=DIRECTION('ref_axis',(0.,-0.999999999872519,-1.59675047427523E-5));
#297=DIRECTION('',(1.,0.,0.));
#298=DIRECTION('',(1.,0.,0.));
#299=DIRECTION('center_axis',(0.,2.64282530512395E-16,1.));
#300=DIRECTION('ref_axis',(0.,-1.,2.64282530512395E-16));
#301=DIRECTION('',(0.,1.,0.));
#302=DIRECTION('',(0.,-1.,0.));
#303=DIRECTION('',(-1.,0.,0.));
#304=DIRECTION('center_axis',(0.,0.,-1.));
#305=DIRECTION('ref_axis',(0.,1.,0.));
#306=DIRECTION('',(0.,-1.,0.));
#307=DIRECTION('',(1.,0.,0.));
#308=DIRECTION('',(0.,1.,0.));
#309=DIRECTION('center_axis',(0.,0.,-1.));
#310=DIRECTION('ref_axis',(0.,1.,0.));
#311=DIRECTION('',(0.,1.,0.));
#312=DIRECTION('',(0.,-1.,0.));
#313=DIRECTION('',(1.,0.,0.));
#314=DIRECTION('center_axis',(1.,0.,0.));
#315=DIRECTION('ref_axis',(0.,1.,0.));
#316=DIRECTION('center_axis',(1.,0.,0.));
#317=DIRECTION('ref_axis',(0.,1.,0.));
#318=DIRECTION('',(-1.,0.,0.));
#319=DIRECTION('center_axis',(0.,2.64282530512395E-16,1.));
#320=DIRECTION('ref_axis',(0.,-1.,2.64282530512395E-16));
#321=DIRECTION('',(0.,-1.,0.));
#322=DIRECTION('',(0.,1.,0.));
#323=DIRECTION('center_axis',(0.,-1.,0.));
#324=DIRECTION('ref_axis',(1.,0.,0.));
#325=DIRECTION('center_axis',(0.,1.,0.));
#326=DIRECTION('ref_axis',(1.,0.,0.));
#327=DIRECTION('',(0.,1.,0.));
#328=DIRECTION('',(0.,1.,0.));
#329=DIRECTION('center_axis',(0.,-1.,0.));
#330=DIRECTION('ref_axis',(1.,0.,0.));
#331=DIRECTION('center_axis',(0.,-1.,0.));
#332=DIRECTION('ref_axis',(1.,0.,0.));
#333=DIRECTION('center_axis',(0.,-1.,0.));
#334=DIRECTION('ref_axis',(1.,0.,0.));
#335=DIRECTION('',(0.,1.,0.));
#336=DIRECTION('',(0.,1.,0.));
#337=DIRECTION('center_axis',(0.,1.,0.));
#338=DIRECTION('ref_axis',(1.,0.,0.));
#339=DIRECTION('center_axis',(0.,1.,0.));
#340=DIRECTION('ref_axis',(1.,0.,0.));
#341=DIRECTION('center_axis',(0.,1.,0.));
#342=DIRECTION('ref_axis',(1.,0.,0.));
#343=CARTESIAN_POINT('',(0.,0.,0.));
#344=CARTESIAN_POINT('Origin',(0.,-499.998070606386,-0.015789790023116));
#345=CARTESIAN_POINT('',(-22.1387314988625,-499.997942866348,-4.01578978798367));
#346=CARTESIAN_POINT('',(-22.5,-503.998039441552,3.66951706138125E-9));
#347=CARTESIAN_POINT('Ctrl Pts',(-22.1387314988625,-499.997942866348,-4.01578978798341));
#348=CARTESIAN_POINT('Ctrl Pts',(-22.1387314986159,-499.997985446595,-4.01578978934321));
#349=CARTESIAN_POINT('Ctrl Pts',(-22.1387314984926,-499.998028026608,-4.0157897900231));
#350=CARTESIAN_POINT('Ctrl Pts',(-22.1387314984926,-500.501482987827,-4.0157897900231));
#351=CARTESIAN_POINT('Ctrl Pts',(-22.1577517067579,-501.037695354481,-3.91496249898113));
#352=CARTESIAN_POINT('Ctrl Pts',(-22.2260625500153,-502.02287067864,-3.50642766865307));
#353=CARTESIAN_POINT('Ctrl Pts',(-22.2743249573431,-502.471928428556,-3.19877744498897));
#354=CARTESIAN_POINT('Ctrl Pts',(-22.364682205094,-503.181000220647,-2.48972319682284));
#355=CARTESIAN_POINT('Ctrl Pts',(-22.4127095763873,-503.488675320692,-2.04065315044729));
#356=CARTESIAN_POINT('Ctrl Pts',(-22.4806553306534,-503.897240042483,-1.05543911615088));
#357=CARTESIAN_POINT('Ctrl Pts',(-22.4996411775285,-503.998070606386,-0.519206547903612));
#358=CARTESIAN_POINT('Ctrl Pts',(-22.499998150708,-503.998070606386,-0.01053008356537));
#359=CARTESIAN_POINT('Ctrl Pts',(-22.5000000000017,-503.998060232124,-0.00526678849487824));
#360=CARTESIAN_POINT('Ctrl Pts',(-22.5,-503.998039441552,7.33903841933184E-9));
#361=CARTESIAN_POINT('',(-24.6753608358363,-499.997942866348,-4.01578978798367));
#362=CARTESIAN_POINT('',(0.,-499.997942866348,-4.01578978798367));
#363=CARTESIAN_POINT('',(-25.,-503.998039441552,3.67058209790359E-9));
#364=CARTESIAN_POINT('Ctrl Pts',(-25.,-503.998039441552,7.34116216777038E-9));
#365=CARTESIAN_POINT('Ctrl Pts',(-25.0000000000015,-503.998060232187,-0.00526680468851051));
#366=CARTESIAN_POINT('Ctrl Pts',(-24.999998335627,-503.998070606386,-0.0105300997937612));
#367=CARTESIAN_POINT('Ctrl Pts',(-24.9996772008317,-503.998070606386,-0.518983237449069));
#368=CARTESIAN_POINT('Ctrl Pts',(-24.9826009082085,-503.897327306885,-1.05511873253361));
#369=CARTESIAN_POINT('Ctrl Pts',(-24.9214853493718,-503.488829986429,-2.04039007798196));
#370=CARTESIAN_POINT('Ctrl Pts',(-24.8782902567905,-503.181123802586,-2.4895979424659));
#371=CARTESIAN_POINT('Ctrl Pts',(-24.7970670934093,-502.471819562769,-3.19888798350488));
#372=CARTESIAN_POINT('Ctrl Pts',(-24.7537185099296,-502.022620834363,-3.50657556932951));
#373=CARTESIAN_POINT('Ctrl Pts',(-24.6924085041207,-501.037377921663,-3.91504981264781));
#374=CARTESIAN_POINT('Ctrl Pts',(-24.6753608355044,-500.501257736674,-4.0157897900231));
#375=CARTESIAN_POINT('Ctrl Pts',(-24.6753608355044,-499.998028026609,-4.0157897900231));
#376=CARTESIAN_POINT('Ctrl Pts',(-24.6753608356151,-499.997985446596,-4.01578978934321));
#377=CARTESIAN_POINT('Ctrl Pts',(-24.6753608358364,-499.997942866348,-4.01578978798341));
#378=CARTESIAN_POINT('',(-24.6804795132249,-499.998070606386,3.98421020997708));
#379=CARTESIAN_POINT('Ctrl Pts',(-24.6804795132249,-499.998070606386,3.98421020997686));
#380=CARTESIAN_POINT('Ctrl Pts',(-24.6804795132249,-500.501253312798,3.98421020997686));
#381=CARTESIAN_POINT('Ctrl Pts',(-24.6973942577499,-501.03737739066,3.88347216673648));
#382=CARTESIAN_POINT('Ctrl Pts',(-24.758172756552,-502.022643301546,3.47498496053478));
#383=CARTESIAN_POINT('Ctrl Pts',(-24.8011235877886,-502.471860309228,3.16728179959306));
#384=CARTESIAN_POINT('Ctrl Pts',(-24.8814355958904,-503.181170897568,2.45795712516883));
#385=CARTESIAN_POINT('Ctrl Pts',(-24.9240553568834,-503.488868169851,2.00874223560452));
#386=CARTESIAN_POINT('Ctrl Pts',(-24.9836033023772,-503.895206591696,1.02863060420859));
#387=CARTESIAN_POINT('Ctrl Pts',(-24.9999999998536,-503.996071353881,0.498568112102289));
#388=CARTESIAN_POINT('Ctrl Pts',(-25.,-503.998039441552,7.34115643274968E-9));
#389=CARTESIAN_POINT('',(-22.1444365248411,-499.998070606386,3.98421020997708));
#390=CARTESIAN_POINT('',(0.,-499.998070606386,3.98421020997708));
#391=CARTESIAN_POINT('Ctrl Pts',(-22.5,-503.998039441552,7.33903535166114E-9));
#392=CARTESIAN_POINT('Ctrl Pts',(-22.4999999998373,-503.996070520764,0.498779162520352));
#393=CARTESIAN_POINT('Ctrl Pts',(-22.4817701409295,-503.895123303824,1.02893465391811));
#394=CARTESIAN_POINT('Ctrl Pts',(-22.4155688225362,-503.488722589867,2.00898908021339));
#395=CARTESIAN_POINT('Ctrl Pts',(-22.3681825960327,-503.181058512557,2.45806785102385));
#396=CARTESIAN_POINT('Ctrl Pts',(-22.2788414438255,-502.471978789566,3.16716497838831));
#397=CARTESIAN_POINT('Ctrl Pts',(-22.23102336244,-502.022898385864,3.47483449667549));
#398=CARTESIAN_POINT('Ctrl Pts',(-22.1633073637064,-501.03769455063,3.88338535445212));
#399=CARTESIAN_POINT('Ctrl Pts',(-22.1444365248411,-500.501477372508,3.98421020997687));
#400=CARTESIAN_POINT('Ctrl Pts',(-22.1444365248411,-499.998070606386,3.98421020997687));
#401=CARTESIAN_POINT('Origin',(0.,-499.998070606386,-0.015789790023116));
#402=CARTESIAN_POINT('',(22.1444365248411,-499.998070606386,3.98421020997708));
#403=CARTESIAN_POINT('',(22.1387314988625,-499.997942866348,-4.01578978798367));
#404=CARTESIAN_POINT('Ctrl Pts',(22.1444365248411,-499.998070606386,3.98421020997687));
#405=CARTESIAN_POINT('Ctrl Pts',(22.1444365248411,-500.501477372507,3.98421020997686));
#406=CARTESIAN_POINT('Ctrl Pts',(22.1633073637064,-501.03769455063,3.88338535445212));
#407=CARTESIAN_POINT('Ctrl Pts',(22.23102336244,-502.022898385864,3.47483449667548));
#408=CARTESIAN_POINT('Ctrl Pts',(22.2788414438255,-502.471978789566,3.16716497838831));
#409=CARTESIAN_POINT('Ctrl Pts',(22.3681825960327,-503.181058512557,2.45806785102385));
#410=CARTESIAN_POINT('Ctrl Pts',(22.4155688225362,-503.488722589867,2.00898908021339));
#411=CARTESIAN_POINT('Ctrl Pts',(22.4821178275059,-503.897257703505,1.0237874487499));
#412=CARTESIAN_POINT('Ctrl Pts',(22.5003477071116,-503.998070606386,0.487577689400218));
#413=CARTESIAN_POINT('Ctrl Pts',(22.4996411775285,-503.998070606386,-0.519206547903611));
#414=CARTESIAN_POINT('Ctrl Pts',(22.4806553306534,-503.897240042483,-1.05543911615086));
#415=CARTESIAN_POINT('Ctrl Pts',(22.4127095763873,-503.488675320692,-2.04065315044727));
#416=CARTESIAN_POINT('Ctrl Pts',(22.364682205094,-503.181000220647,-2.48972319682284));
#417=CARTESIAN_POINT('Ctrl Pts',(22.2743249573431,-502.471928428556,-3.19877744498897));
#418=CARTESIAN_POINT('Ctrl Pts',(22.2260625500153,-502.02287067864,-3.50642766865299));
#419=CARTESIAN_POINT('Ctrl Pts',(22.1577517067579,-501.037695354482,-3.9149624989811));
#420=CARTESIAN_POINT('Ctrl Pts',(22.1387314984926,-500.501482987827,-4.0157897900231));
#421=CARTESIAN_POINT('Ctrl Pts',(22.1387314984926,-499.998028026608,-4.0157897900231));
#422=CARTESIAN_POINT('Ctrl Pts',(22.1387314986159,-499.997985446595,-4.01578978934321));
#423=CARTESIAN_POINT('Ctrl Pts',(22.1387314988625,-499.997942866348,-4.01578978798341));
#424=CARTESIAN_POINT('',(24.6804795132249,-499.998070606386,3.98421020997708));
#425=CARTESIAN_POINT('',(0.,-499.998070606386,3.98421020997708));
#426=CARTESIAN_POINT('',(24.6753608358363,-499.997942866348,-4.01578978798367));
#427=CARTESIAN_POINT('Ctrl Pts',(24.6753608358364,-499.997942866348,-4.01578978798341));
#428=CARTESIAN_POINT('Ctrl Pts',(24.6753608356151,-499.997985446596,-4.01578978934321));
#429=CARTESIAN_POINT('Ctrl Pts',(24.6753608355044,-499.998028026609,-4.0157897900231));
#430=CARTESIAN_POINT('Ctrl Pts',(24.6753608355044,-500.501257736674,-4.0157897900231));
#431=CARTESIAN_POINT('Ctrl Pts',(24.6924085041207,-501.037377921663,-3.91504981264781));
#432=CARTESIAN_POINT('Ctrl Pts',(24.7537185099296,-502.022620834363,-3.50657556932956));
#433=CARTESIAN_POINT('Ctrl Pts',(24.7970670934093,-502.471819562769,-3.19888798350488));
#434=CARTESIAN_POINT('Ctrl Pts',(24.8782902567905,-503.181123802586,-2.4895979424659));
#435=CARTESIAN_POINT('Ctrl Pts',(24.9214853493718,-503.488829986429,-2.04039007798197));
#436=CARTESIAN_POINT('Ctrl Pts',(24.9826009082085,-503.897327306885,-1.05511873253362));
#437=CARTESIAN_POINT('Ctrl Pts',(24.9996772008317,-503.998070606386,-0.51898323744907));
#438=CARTESIAN_POINT('Ctrl Pts',(25.0003128013199,-503.998070606386,0.48736383955817));
#439=CARTESIAN_POINT('Ctrl Pts',(24.9839161783651,-503.897341569387,1.02348091529139));
#440=CARTESIAN_POINT('Ctrl Pts',(24.9240553568834,-503.488868169851,2.00874223560452));
#441=CARTESIAN_POINT('Ctrl Pts',(24.8814355958904,-503.181170897568,2.45795712516883));
#442=CARTESIAN_POINT('Ctrl Pts',(24.8011235877886,-502.471860309228,3.16728179959306));
#443=CARTESIAN_POINT('Ctrl Pts',(24.758172756552,-502.022643301546,3.47498496053478));
#444=CARTESIAN_POINT('Ctrl Pts',(24.6973942577499,-501.03737739066,3.88347216673648));
#445=CARTESIAN_POINT('Ctrl Pts',(24.6804795132249,-500.501253312798,3.98421020997686));
#446=CARTESIAN_POINT('Ctrl Pts',(24.6804795132249,-499.998070606386,3.98421020997686));
#447=CARTESIAN_POINT('',(0.,-499.997942866348,-4.01578978798367));
#448=CARTESIAN_POINT('Origin',(0.,-40.0001246174709,3.98421020997696));
#449=CARTESIAN_POINT('',(-22.1444365248411,-40.0001246174709,3.98421020997696));
#450=CARTESIAN_POINT('',(-22.1444365248411,0.,3.98421020997695));
#451=CARTESIAN_POINT('',(-24.6804795132249,-40.0001246174709,3.98421020997696));
#452=CARTESIAN_POINT('',(-24.6804795132249,0.,3.98421020997695));
#453=CARTESIAN_POINT('',(0.,-40.0001246174709,3.98421020997696));
#454=CARTESIAN_POINT('Origin',(0.,-499.997942866348,-4.01578978798367));
#455=CARTESIAN_POINT('',(-22.1387314988625,-39.9999968835323,-4.01578978798367));
#456=CARTESIAN_POINT('',(-22.1387314988625,0.,-4.01578978798367));
#457=CARTESIAN_POINT('',(-24.6753608358363,-39.9999968835323,-4.01578978798367));
#458=CARTESIAN_POINT('',(0.,-39.9999968835323,-4.01578978798367));
#459=CARTESIAN_POINT('',(-24.6753608358363,0.,-4.01578978798367));
#460=CARTESIAN_POINT('Origin',(0.,-499.997942866348,-4.01578978798367));
#461=CARTESIAN_POINT('',(22.1387314988625,-39.9999968835323,-4.01578978798367));
#462=CARTESIAN_POINT('',(22.1387314988625,0.,-4.01578978798367));
#463=CARTESIAN_POINT('',(24.6753608358363,-39.9999968835323,-4.01578978798367));
#464=CARTESIAN_POINT('',(24.6753608358363,0.,-4.01578978798367));
#465=CARTESIAN_POINT('',(0.,-39.9999968835323,-4.01578978798367));
#466=CARTESIAN_POINT('Origin',(0.,-39.9999968835323,-0.0157897879832705));
#467=CARTESIAN_POINT('',(-22.5,-36.0000280483583,3.66951664504762E-9));
#468=CARTESIAN_POINT('Ctrl Pts',(-22.144436524841,-40.0001246174709,3.98421020997723));
#469=CARTESIAN_POINT('Ctrl Pts',(-22.1444365245964,-40.0000820392567,3.9842102113369));
#470=CARTESIAN_POINT('Ctrl Pts',(-22.1444365244741,-40.0000394612771,3.98421021201673));
#471=CARTESIAN_POINT('Ctrl Pts',(-22.1444365244741,-39.9999968835323,3.98421021201673));
#472=CARTESIAN_POINT('Ctrl Pts',(-22.1444365244741,-39.4965901174102,3.98421021201673));
#473=CARTESIAN_POINT('Ctrl Pts',(-22.1633073633491,-38.9603729392884,3.88338535649181));
#474=CARTESIAN_POINT('Ctrl Pts',(-22.2310233621211,-37.9751691040559,3.47483449871619));
#475=CARTESIAN_POINT('Ctrl Pts',(-22.2788414435353,-37.526088700355,3.16716498043027));
#476=CARTESIAN_POINT('Ctrl Pts',(-22.3681825958081,-36.8170089773653,2.45806785306857));
#477=CARTESIAN_POINT('Ctrl Pts',(-22.415568822353,-36.5093449000541,2.00898908225868));
#478=CARTESIAN_POINT('Ctrl Pts',(-22.4817701408809,-36.1029441858197,1.02893465529808));
#479=CARTESIAN_POINT('Ctrl Pts',(-22.4999999998373,-36.0019969688937,0.498779163117773));
#480=CARTESIAN_POINT('Ctrl Pts',(-22.5,-36.0000280483583,7.33903618432841E-9));
#481=CARTESIAN_POINT('',(-25.,-36.0000280483583,3.6705639873905E-9));
#482=CARTESIAN_POINT('Ctrl Pts',(-25.,-36.0000280483583,7.34113145273163E-9));
#483=CARTESIAN_POINT('Ctrl Pts',(-24.9999999998536,-36.0019961620674,0.498574772798211));
#484=CARTESIAN_POINT('Ctrl Pts',(-24.9836028549988,-36.1028635683263,1.02864389396218));
#485=CARTESIAN_POINT('Ctrl Pts',(-24.9240535700056,-36.509211898254,2.008765657095));
#486=CARTESIAN_POINT('Ctrl Pts',(-24.8814329554893,-36.8169164543154,2.45798403229217));
#487=CARTESIAN_POINT('Ctrl Pts',(-24.8011209326586,-37.5262340848222,3.16730166279904));
#488=CARTESIAN_POINT('Ctrl Pts',(-24.7581709491057,-37.9754476065887,3.47499754025525));
#489=CARTESIAN_POINT('Ctrl Pts',(-24.6973937993609,-38.9607034023301,3.88347481548734));
#490=CARTESIAN_POINT('Ctrl Pts',(-24.6804795128956,-39.4968208470505,3.98421021201673));
#491=CARTESIAN_POINT('Ctrl Pts',(-24.6804795128956,-39.9999968835323,3.98421021201673));
#492=CARTESIAN_POINT('Ctrl Pts',(-24.6804795128956,-40.000039461276,3.98421021201673));
#493=CARTESIAN_POINT('Ctrl Pts',(-24.6804795130054,-40.0000820392555,3.9842102113369));
#494=CARTESIAN_POINT('Ctrl Pts',(-24.6804795132249,-40.0001246174709,3.98421020997723));
#495=CARTESIAN_POINT('Ctrl Pts',(-24.6753608358364,-39.9999968835323,-4.01578978798327));
#496=CARTESIAN_POINT('Ctrl Pts',(-24.6753608358364,-39.496803029256,-4.01578978798327));
#497=CARTESIAN_POINT('Ctrl Pts',(-24.6924089697477,-38.9606761577458,-3.91504714241192));
#498=CARTESIAN_POINT('Ctrl Pts',(-24.75372034845,-37.9754230488234,-3.50656288830693));
#499=CARTESIAN_POINT('Ctrl Pts',(-24.7970697958315,-37.5262208067316,-3.19886796067491));
#500=CARTESIAN_POINT('Ctrl Pts',(-24.8782929531352,-36.8169236658028,-2.4895708197461));
#501=CARTESIAN_POINT('Ctrl Pts',(-24.9214871807017,-36.5092248240227,-2.04036646867718));
#502=CARTESIAN_POINT('Ctrl Pts',(-24.9826013733133,-36.100737514804,-1.05510531976272));
#503=CARTESIAN_POINT('Ctrl Pts',(-24.9996772051208,-35.9999968835323,-0.518976511587929));
#504=CARTESIAN_POINT('Ctrl Pts',(-24.9999983356275,-35.9999968835323,-0.0105300983342236));
#505=CARTESIAN_POINT('Ctrl Pts',(-25.0000000000015,-36.0000072577284,-0.00526680390951425));
#506=CARTESIAN_POINT('Ctrl Pts',(-25.,-36.0000280483583,7.3411311329167E-9));
#507=CARTESIAN_POINT('Ctrl Pts',(-22.5,-36.0000280483583,7.33903568518004E-9));
#508=CARTESIAN_POINT('Ctrl Pts',(-22.5000000000017,-36.0000072577919,-0.00526678781402678));
#509=CARTESIAN_POINT('Ctrl Pts',(-22.4999981507085,-35.9999968835323,-0.0105300822045576));
#510=CARTESIAN_POINT('Ctrl Pts',(-22.4996411775756,-35.9999968835323,-0.519206545860582));
#511=CARTESIAN_POINT('Ctrl Pts',(-22.4806553307493,-36.100827447434,-1.0554391141064));
#512=CARTESIAN_POINT('Ctrl Pts',(-22.4127095765734,-36.5093921692236,-2.04065314840199));
#513=CARTESIAN_POINT('Ctrl Pts',(-22.3646822053216,-36.8170672692673,-2.48972319477808));
#514=CARTESIAN_POINT('Ctrl Pts',(-22.2743249576363,-37.5261390613584,-3.19877744294699));
#515=CARTESIAN_POINT('Ctrl Pts',(-22.2260625503372,-37.9751968112767,-3.50642766661237));
#516=CARTESIAN_POINT('Ctrl Pts',(-22.1577517071182,-38.960372135437,-3.91496249694145));
#517=CARTESIAN_POINT('Ctrl Pts',(-22.1387314988626,-39.4965845020917,-4.01578978798327));
#518=CARTESIAN_POINT('Ctrl Pts',(-22.1387314988626,-39.9999968835323,-4.01578978798327));
#519=CARTESIAN_POINT('Origin',(0.,-39.9999968835323,-0.0157897879832705));
#520=CARTESIAN_POINT('',(22.1444365248411,-40.0001246174709,3.98421020997696));
#521=CARTESIAN_POINT('Ctrl Pts',(22.1387314988626,-39.9999968835323,-4.01578978798327));
#522=CARTESIAN_POINT('Ctrl Pts',(22.1387314988626,-39.4965845020917,-4.01578978798327));
#523=CARTESIAN_POINT('Ctrl Pts',(22.1577517071183,-38.960372135437,-3.91496249694145));
#524=CARTESIAN_POINT('Ctrl Pts',(22.2260625503372,-37.9751968112767,-3.50642766661237));
#525=CARTESIAN_POINT('Ctrl Pts',(22.2743249576363,-37.5261390613584,-3.19877744294699));
#526=CARTESIAN_POINT('Ctrl Pts',(22.3646822053216,-36.8170672692673,-2.48972319477808));
#527=CARTESIAN_POINT('Ctrl Pts',(22.4127095765734,-36.5093921692236,-2.04065314840199));
#528=CARTESIAN_POINT('Ctrl Pts',(22.4806553307493,-36.100827447434,-1.0554391141064));
#529=CARTESIAN_POINT('Ctrl Pts',(22.4996411775756,-35.9999968835323,-0.519206545860582));
#530=CARTESIAN_POINT('Ctrl Pts',(22.5003477070674,-35.9999968835323,0.487577691443243));
#531=CARTESIAN_POINT('Ctrl Pts',(22.4821178274128,-36.1008097864138,1.02378745079441));
#532=CARTESIAN_POINT('Ctrl Pts',(22.415568822353,-36.5093449000541,2.00898908225868));
#533=CARTESIAN_POINT('Ctrl Pts',(22.3681825958081,-36.8170089773653,2.45806785306857));
#534=CARTESIAN_POINT('Ctrl Pts',(22.2788414435353,-37.526088700355,3.16716498043027));
#535=CARTESIAN_POINT('Ctrl Pts',(22.2310233621211,-37.9751691040559,3.47483449871619));
#536=CARTESIAN_POINT('Ctrl Pts',(22.1633073633491,-38.9603729392884,3.88338535649181));
#537=CARTESIAN_POINT('Ctrl Pts',(22.1444365244741,-39.4965901174102,3.98421021201673));
#538=CARTESIAN_POINT('Ctrl Pts',(22.1444365244741,-39.9999968835323,3.98421021201673));
#539=CARTESIAN_POINT('Ctrl Pts',(22.1444365244741,-40.0000394612771,3.98421021201673));
#540=CARTESIAN_POINT('Ctrl Pts',(22.1444365245964,-40.0000820392567,3.9842102113369));
#541=CARTESIAN_POINT('Ctrl Pts',(22.144436524841,-40.0001246174709,3.98421020997723));
#542=CARTESIAN_POINT('',(24.6804795132249,-40.0001246174709,3.98421020997696));
#543=CARTESIAN_POINT('Ctrl Pts',(24.6804795132249,-40.0001246174709,3.98421020997723));
#544=CARTESIAN_POINT('Ctrl Pts',(24.6804795130054,-40.0000820392555,3.9842102113369));
#545=CARTESIAN_POINT('Ctrl Pts',(24.6804795128956,-40.000039461276,3.98421021201673));
#546=CARTESIAN_POINT('Ctrl Pts',(24.6804795128956,-39.9999968835323,3.98421021201673));
#547=CARTESIAN_POINT('Ctrl Pts',(24.6804795128956,-39.4968208470505,3.98421021201673));
#548=CARTESIAN_POINT('Ctrl Pts',(24.6973937993609,-38.9607034023301,3.88347481548734));
#549=CARTESIAN_POINT('Ctrl Pts',(24.7581709491057,-37.9754476065887,3.47499754025525));
#550=CARTESIAN_POINT('Ctrl Pts',(24.8011209326586,-37.5262340848222,3.16730166279904));
#551=CARTESIAN_POINT('Ctrl Pts',(24.8814329554893,-36.8169164543154,2.45798403229217));
#552=CARTESIAN_POINT('Ctrl Pts',(24.9240535700056,-36.509211898254,2.008765657095));
#553=CARTESIAN_POINT('Ctrl Pts',(24.9839157338207,-36.1007285672637,1.02349422100501));
#554=CARTESIAN_POINT('Ctrl Pts',(25.0003128054928,-35.9999968835323,0.487370511418926));
#555=CARTESIAN_POINT('Ctrl Pts',(24.9996772051208,-35.9999968835323,-0.518976511587929));
#556=CARTESIAN_POINT('Ctrl Pts',(24.9826013733133,-36.100737514804,-1.05510531976272));
#557=CARTESIAN_POINT('Ctrl Pts',(24.9214871807017,-36.5092248240227,-2.04036646867718));
#558=CARTESIAN_POINT('Ctrl Pts',(24.8782929531352,-36.8169236658028,-2.4895708197461));
#559=CARTESIAN_POINT('Ctrl Pts',(24.7970697958315,-37.5262208067316,-3.19886796067491));
#560=CARTESIAN_POINT('Ctrl Pts',(24.75372034845,-37.9754230488234,-3.50656288830693));
#561=CARTESIAN_POINT('Ctrl Pts',(24.6924089697477,-38.9606761577458,-3.91504714241192));
#562=CARTESIAN_POINT('Ctrl Pts',(24.6753608358364,-39.496803029256,-4.01578978798327));
#563=CARTESIAN_POINT('Ctrl Pts',(24.6753608358364,-39.9999968835323,-4.01578978798327));
#564=CARTESIAN_POINT('',(0.,-40.0001246174709,3.98421020997696));
#565=CARTESIAN_POINT('Origin',(0.,-40.0001246174709,3.98421020997696));
#566=CARTESIAN_POINT('',(22.1444365248411,0.,3.98421020997695));
#567=CARTESIAN_POINT('',(24.6804795132249,0.,3.98421020997695));
#568=CARTESIAN_POINT('Origin',(0.,0.,0.));
#569=CARTESIAN_POINT('',(-22.5,-600.,2.75545529808154E-15));
#570=CARTESIAN_POINT('Origin',(0.,-600.,0.));
#571=CARTESIAN_POINT('',(-22.5,0.,-2.75545529808154E-15));
#572=CARTESIAN_POINT('',(-22.5,0.,2.75545529808154E-15));
#573=CARTESIAN_POINT('',(-22.5,0.,-2.75545529808154E-15));
#574=CARTESIAN_POINT('Origin',(0.,0.,0.));
#575=CARTESIAN_POINT('Origin',(0.,0.,0.));
#576=CARTESIAN_POINT('',(-25.,-600.,3.06161699786838E-15));
#577=CARTESIAN_POINT('Origin',(0.,-600.,0.));
#578=CARTESIAN_POINT('',(-25.,0.,-3.06161699786838E-15));
#579=CARTESIAN_POINT('',(-25.,0.,3.06161699786838E-15));
#580=CARTESIAN_POINT('',(-25.,0.,-3.06161699786838E-15));
#581=CARTESIAN_POINT('Origin',(0.,0.,0.));
#582=CARTESIAN_POINT('Origin',(0.,0.,0.));
#583=CARTESIAN_POINT('Origin',(0.,-600.,0.));
#584=UNCERTAINTY_MEASURE_WITH_UNIT(LENGTH_MEASURE(0.01),#588,
'DISTANCE_ACCURACY_VALUE',
'Maximum model space distance between geometric entities at asserted c
onnectivities');
#585=UNCERTAINTY_MEASURE_WITH_UNIT(LENGTH_MEASURE(0.01),#588,
'DISTANCE_ACCURACY_VALUE',
'Maximum model space distance between geometric entities at asserted c
onnectivities');
#586=(
GEOMETRIC_REPRESENTATION_CONTEXT(3)
GLOBAL_UNCERTAINTY_ASSIGNED_CONTEXT((#584))
GLOBAL_UNIT_ASSIGNED_CONTEXT((#588,#590,#591))
REPRESENTATION_CONTEXT('','3D')
);
#587=(
GEOMETRIC_REPRESENTATION_CONTEXT(3)
GLOBAL_UNCERTAINTY_ASSIGNED_CONTEXT((#585))
GLOBAL_UNIT_ASSIGNED_CONTEXT((#588,#590,#591))
REPRESENTATION_CONTEXT('','3D')
);
#588=(
LENGTH_UNIT()
NAMED_UNIT(*)
SI_UNIT(.MILLI.,.METRE.)
);
#589=(
LENGTH_UNIT()
NAMED_UNIT(*)
SI_UNIT($,.METRE.)
);
#590=(
NAMED_UNIT(*)
PLANE_ANGLE_UNIT()
SI_UNIT($,.RADIAN.)
);
#591=(
NAMED_UNIT(*)
SI_UNIT($,.STERADIAN.)
SOLID_ANGLE_UNIT()
);
#592=SHAPE_DEFINITION_REPRESENTATION(#593,#594);
#593=PRODUCT_DEFINITION_SHAPE('',$,#596);
#594=SHAPE_REPRESENTATION('',(#272),#586);
#595=PRODUCT_DEFINITION_CONTEXT('part definition',#600,'design');
#596=PRODUCT_DEFINITION('InnenLauf','InnenLauf',#597,#595);
#597=PRODUCT_DEFINITION_FORMATION('',$,#602);
#598=PRODUCT_RELATED_PRODUCT_CATEGORY('InnenLauf','InnenLauf',(#602));
#599=APPLICATION_PROTOCOL_DEFINITION('international standard',
'automotive_design',2009,#600);
#600=APPLICATION_CONTEXT(
'Core Data for Automotive Mechanical Design Process');
#601=PRODUCT_CONTEXT('part definition',#600,'mechanical');
#602=PRODUCT('InnenLauf','InnenLauf',$,(#601));
#603=PRESENTATION_STYLE_ASSIGNMENT((#604));
#604=SURFACE_STYLE_USAGE(.BOTH.,#605);
#605=SURFACE_SIDE_STYLE('',(#606));
#606=SURFACE_STYLE_FILL_AREA(#607);
#607=FILL_AREA_STYLE('Stahl - satiniert',(#608));
#608=FILL_AREA_STYLE_COLOUR('Stahl - satiniert',#609);
#609=COLOUR_RGB('Stahl - satiniert',0.627450980392157,0.627450980392157,
0.627450980392157);
ENDSEC;
END-ISO-10303-21;
